# xmcd
#
# Track frame offsets:
#	150
#	21082
#	43970
#	68082
#	90072
#	108697
#	129757
#	150100
#	177542
#	197617
#
# Disc length: 2894 seconds
#
# Revision: 3
# Processed by: cddbd v1.5.2PL0 Copyright (c) Steve Scherf et al.
# Submitted via: EZCDAudioConverter 8.0.2.1
#
DISCID=740b4c0a
DTITLE=Khánh Ly - Tưởng Rằng Đã Quên
DYEAR=1991
DGENRE=Pop
TTITLE0=Tưởng Rằng Đã Quên 
TTITLE1=Diễm xưa 
TTITLE2=Tiếng còi trong sương đêm
TTITLE3=Chiều Tô Châu 
TTITLE4=Đoàn lữ nhạc
TTITLE5=Rừng cây trút lá
TTITLE6=Bàn tay dĩ vãng
TTITLE7=Em còn nhớ mùa xuân
TTITLE8=Trên đỉnh mùa đông
TTITLE9=Như giọt xuân rơi
EXTD=
EXTT0=
EXTT1=
EXTT2=
EXTT3=
EXTT4=
EXTT5=
EXTT6=
EXTT7=
EXTT8=
EXTT9=
PLAYORDER=
